<svg width="20.000000" height="20.000000" viewBox="0 0 20 20" fill="none" xmlns="http://www.w3.org/2000/svg" xmlns:xlink="http://www.w3.org/1999/xlink">
	<desc>
			Created with Pixso.
	</desc>
	<defs>
		<clipPath id="clip1_3919">
			<rect id="fontisto:male" width="20.000000" height="20.000000" fill="white" fill-opacity="0"/>
		</clipPath>
	</defs>
	<g opacity="0.700000">
		<rect id="fontisto:male" width="20.000000" height="20.000000" fill="#FFFFFF" fill-opacity="0"/>
		<g clip-path="url(#clip1_3919)">
			<path id="Vector" d="M12.7875 13.8575C12.736 13.1573 12.7215 12.455 12.7441 11.7534L12.7433 11.7842C13.3704 11.1341 13.7615 10.2926 13.8542 9.39417L13.8558 9.37665C14.1383 9.35333 14.5842 9.07831 14.7142 7.98834C14.7534 7.8006 14.7386 7.60559 14.6715 7.42596C14.6044 7.24628 14.4877 7.08936 14.335 6.97333L14.3325 6.97168C14.7925 5.58832 15.7475 1.30835 12.565 0.866638C12.2375 0.291687 11.3992 0 10.3091 0C5.94836 0.0800171 5.42249 3.29248 6.37585 6.97168C6.22192 7.08875 6.10449 7.24725 6.03735 7.42865C5.97021 7.60999 5.95612 7.80676 5.99664 7.99585L5.99585 7.98914C6.12915 9.07751 6.57166 9.35419 6.85419 9.3775C6.95325 10.2859 7.35681 11.1342 7.99915 11.7842C8.02026 12.4981 8.00415 13.2127 7.95081 13.925L7.95502 13.8575C7.09003 16.1775 1.26666 15.5258 1 20L19.715 20C19.4467 15.5258 13.65 16.1775 12.7867 13.8575L12.7875 13.8575Z" fill="#FFFFFF" fill-opacity="1.000000" fill-rule="evenodd"/>
		</g>
	</g>
</svg>
